<?xml version="1.0" standalone="no"?>
<!DOCTYPE svg PUBLIC "-//W3C//DTD SVG 20010904//EN"
 "http://www.w3.org/TR/2001/REC-SVG-20010904/DTD/svg10.dtd">
<svg version="1.0" xmlns="http://www.w3.org/2000/svg"
 width="476.000000pt" height="554.000000pt" viewBox="0 0 476.000000 554.000000"
 preserveAspectRatio="xMidYMid meet">

<g transform="translate(0.000000,554.000000) scale(0.100000,-0.100000)"
fill="#000000" stroke="none">
<path d="M2451 4659 c-229 -21 -419 -76 -626 -179 -182 -91 -303 -178 -445
-321 -213 -213 -361 -461 -437 -731 l-27 -96 -85 30 c-47 16 -150 63 -229 104
-127 66 -148 74 -197 74 -71 0 -111 -17 -156 -67 -73 -81 -106 -231 -96 -443
8 -176 50 -318 131 -444 20 -31 36 -58 36 -60 0 -2 -11 -7 -24 -10 -34 -8 -83
-69 -97 -118 -34 -129 58 -346 215 -504 91 -91 162 -142 285 -203 90 -46 248
-101 287 -101 13 0 24 -4 24 -8 0 -18 -200 -45 -375 -51 -205 -7 -232 -16
-272 -87 -46 -80 -26 -140 75 -236 196 -184 545 -358 895 -443 239 -59 407
-78 682 -79 347 0 563 34 873 136 680 225 1198 733 1416 1388 106 320 130 625
75 951 l-21 122 34 25 c18 14 68 60 110 103 90 91 150 202 168 311 20 112 -12
208 -80 243 -49 25 -121 36 -173 26 -43 -8 -47 -7 -41 8 81 194 45 386 -84
443 -58 26 -96 21 -272 -37 -233 -76 -330 -76 -457 -1 -210 122 -443 206 -676
240 -127 19 -323 26 -436 15z m480 -248 c179 -38 318 -91 499 -191 216 -119
347 -127 615 -38 66 22 126 43 134 46 23 9 5 -83 -31 -157 -22 -45 -56 -89
-119 -152 -95 -95 -105 -117 -71 -159 13 -17 36 -24 95 -33 80 -11 175 -4 329
27 l68 14 -6 -27 c-13 -54 -39 -95 -111 -171 -41 -43 -105 -102 -144 -130 -40
-31 -72 -62 -75 -76 -3 -13 5 -70 19 -126 77 -306 59 -669 -48 -979 -171 -494
-540 -899 -1029 -1129 -215 -102 -523 -184 -780 -209 -545 -53 -1121 72 -1530
332 l-90 57 62 0 c324 0 737 153 955 354 43 40 48 48 45 82 -2 26 -11 43 -30
57 -26 19 -29 19 -85 4 -445 -123 -1021 97 -1157 442 -9 24 -15 45 -13 47 2 3
57 -7 121 -21 65 -14 151 -28 191 -32 72 -6 74 -5 104 25 36 36 41 77 12 113
-10 14 -61 49 -112 79 -134 79 -244 191 -299 303 -50 104 -70 193 -70 317 0
86 14 212 26 231 2 4 44 -15 92 -44 107 -63 222 -113 369 -161 123 -39 160
-43 202 -21 34 17 46 45 61 150 26 172 115 386 233 559 75 109 242 279 354
359 94 67 257 154 358 192 82 31 243 71 340 84 112 16 404 5 516 -18z"/>
<path d="M3502 3209 c-102 -51 -165 -168 -166 -309 0 -104 23 -159 94 -223 71
-64 166 -84 263 -55 56 17 139 96 168 160 30 70 32 181 4 257 -57 154 -231
235 -363 170z m225 -121 c31 -29 33 -108 3 -138 -49 -49 -116 0 -107 78 8 76
57 104 104 60z"/>
<path d="M2095 3196 c-59 -27 -118 -89 -147 -154 -17 -36 -22 -68 -22 -137 -1
-77 3 -98 25 -146 52 -109 132 -164 239 -164 106 1 197 61 247 163 24 50 27
69 28 152 0 84 -3 101 -28 152 -66 135 -216 193 -342 134z m220 -121 c48 -47
20 -155 -40 -155 -63 0 -90 106 -40 155 13 14 31 25 40 25 9 0 27 -11 40 -25z"/>
<path d="M2648 2781 c-31 -28 -33 -33 -33 -98 0 -91 34 -178 93 -244 56 -63
110 -90 187 -97 68 -5 125 14 189 63 72 55 136 194 136 297 0 41 -5 54 -29 79
l-29 29 -241 0 -241 0 -32 -29z m412 -131 c0 -21 -32 -85 -53 -108 -73 -78
-172 -59 -218 42 -35 77 -38 76 126 76 93 0 145 -4 145 -10z"/>
</g>
</svg>
